HIERARCHY
ROOT Hips
{
	OFFSET 0.000000 0.000000 0.000000
	CHANNELS 6 Xposition Yposition Zposition Zrotation Yrotation Xrotation 
	JOINT LeftUpLeg_virtual
	{
		OFFSET 0.000000 0.000000 0.000000
		CHANNELS 3 Zrotation Yrotation Xrotation
		JOINT LeftUpLeg
		{
			OFFSET 8.479694 -4.795517 -0.379053
			CHANNELS 3 Zrotation Yrotation Xrotation
			JOINT LeftLeg
			{
				OFFSET 0.485052 -32.551468 0.112863
				CHANNELS 3 Zrotation Yrotation Xrotation
				JOINT LeftFoot
				{
					OFFSET 0.438033 -32.635670 -3.012641
					CHANNELS 3 Zrotation Yrotation Xrotation
					JOINT LeftToeBase
					{
						OFFSET 0.970169 -13.225353 11.864223
						CHANNELS 3 Zrotation Yrotation Xrotation
						End Site
						{
							OFFSET 0.000000 0.000000 0.000000
						}
					}
				}
			}
		}
	}
	JOINT RightUpLeg_virtual
	{
		OFFSET 0.000000 0.000000 0.000000
		CHANNELS 3 Zrotation Yrotation Xrotation
		JOINT RightUpLeg
		{
			OFFSET -8.479694 -4.795517 -0.379053
			CHANNELS 3 Zrotation Yrotation Xrotation
			JOINT RightLeg
			{
				OFFSET -0.484100 -32.551483 0.112903
				CHANNELS 3 Zrotation Yrotation Xrotation
				JOINT RightFoot
				{
					OFFSET -0.438985 -32.635651 -3.012681
					CHANNELS 3 Zrotation Yrotation Xrotation
					JOINT RightToeBase
					{
						OFFSET -0.970169 -13.225354 11.864223
						CHANNELS 3 Zrotation Yrotation Xrotation
						End Site
						{
							OFFSET 0.000000 0.000000 0.000000
						}
					}
				}
			}
		}
	}
	JOINT Spine_virtual
	{
		OFFSET 0.000000 0.000000 0.000000
		CHANNELS 3 Zrotation Yrotation Xrotation
		JOINT Spine
		{
			OFFSET 0.000000 7.722015 1.166203
			CHANNELS 3 Zrotation Yrotation Xrotation
			JOINT Spine1
			{
				OFFSET 0.000000 12.024086 0.248766
				CHANNELS 3 Zrotation Yrotation Xrotation
				JOINT Spine2
				{
					OFFSET -0.000000 11.503036 -0.491240
					CHANNELS 3 Zrotation Yrotation Xrotation
					JOINT Neck_virtual
					{
						OFFSET 0.000000 0.000000 0.000000
						CHANNELS 3 Zrotation Yrotation Xrotation
						JOINT Neck
						{
							OFFSET 0.000000 18.430687 -3.123054
							CHANNELS 3 Zrotation Yrotation Xrotation
							JOINT Head
							{
								OFFSET -0.000000 9.051071 1.034021
								CHANNELS 3 Zrotation Yrotation Xrotation
								End Site
								{
									OFFSET 0.000000 0.000000 0.000000
								}
							}
						}
					}
					JOINT LeftShoulder_virtual
					{
						OFFSET 0.000000 0.000000 0.000000
						CHANNELS 3 Zrotation Yrotation Xrotation
						JOINT LeftShoulder
						{
							OFFSET 6.197824 13.665230 -4.064723
							CHANNELS 3 Zrotation Yrotation Xrotation
							JOINT LeftArm
							{
								OFFSET 7.778132 -0.187073 -1.709282
								CHANNELS 3 Zrotation Yrotation Xrotation
								JOINT LeftForeArm
								{
									OFFSET 21.954697 0.000000 -2.041093
									CHANNELS 3 Zrotation Yrotation Xrotation
									JOINT LeftHand
									{
										OFFSET 22.992908 0.000000 -0.870901
										CHANNELS 3 Zrotation Yrotation Xrotation
										End Site
										{
											OFFSET 0.000000 0.000000 0.000000
										}
									}
								}
							}
						}
					}
					JOINT RightShoulder_virtual
					{
						OFFSET 0.000000 0.000000 0.000000
						CHANNELS 3 Zrotation Yrotation Xrotation
						JOINT RightShoulder
						{
							OFFSET -6.197824 13.665230 -4.064723
							CHANNELS 3 Zrotation Yrotation Xrotation
							JOINT RightArm
							{
								OFFSET -7.778132 -0.187073 -1.709282
								CHANNELS 3 Zrotation Yrotation Xrotation
								JOINT RightForeArm
								{
									OFFSET -21.954697 0.000000 -2.041093
									CHANNELS 3 Zrotation Yrotation Xrotation
									JOINT RightHand
									{
										OFFSET -22.992908 0.000000 -0.870901
										CHANNELS 3 Zrotation Yrotation Xrotation
										End Site
										{
											OFFSET 0.000000 0.000000 0.000000
										}
									}
								}
							}
						}
					}
				}
			}
		}
	}
}
MOTION
Frames: 13
Frame Time: 0.033333
3.125359 81.558807 -6.167315 179.925747 1.058058 179.867595 -3.684602 -1.359225 10.340281 2.185982 -4.165397 -23.114248 6.535168 1.546315 26.657122 -2.741626 -7.634289 -7.857491 0.000000 0.000000 0.000000 -0.166516 -2.667201 9.991763 -4.478694 -0.413606 -22.273039 -1.058664 3.289632 30.791623 9.600493 4.662353 -9.939868 0.000000 0.000000 0.000000 2.758715 1.132763 -3.248159 -6.087320 2.885709 1.027786 -0.616821 -2.533665 3.475079 0.040275 0.020687 -0.021053 -1.042161 -1.423014 3.831202 1.708182 -2.505634 -9.982808 0.000000 0.000000 0.000000 0.402020 -0.580911 1.147417 13.300240 1.639105 -4.424874 -6.757962 5.392378 -48.724271 -0.093022 -37.342075 -8.709787 0.000000 0.000000 0.000000 -3.338864 0.458863 0.656332 5.875480 -14.947270 -4.019749 11.097246 -11.889449 -47.563501 -0.148686 30.640058 -3.700962 0.000000 0.000000 0.000000 
3.118030 81.565201 -6.171059 179.852446 1.274324 179.825248 -3.605317 -1.593907 10.418259 2.389998 -4.734720 -23.070950 6.553232 0.942540 26.690609 -3.033994 -8.023701 -8.226698 0.000000 0.000000 0.000000 -0.100923 -3.107747 9.774403 -4.204837 -1.147246 -22.450646 -1.039068 2.616270 31.440501 9.210896 4.206496 -9.802549 0.000000 0.000000 0.000000 2.716433 1.181765 -3.226792 -6.116521 2.930333 1.027440 -0.629302 -2.479415 3.456409 0.042490 0.080217 -0.081817 -1.036583 -1.427145 3.865497 1.743372 -2.641089 -10.050176 0.000000 0.000000 0.000000 0.406477 -0.605453 1.167625 13.286026 1.588325 -4.452175 -6.757525 5.471504 -48.589563 -0.090986 -37.376434 -8.704477 0.000000 0.000000 0.000000 -3.329100 0.463046 0.722487 5.889661 -14.962371 -4.025138 11.079888 -11.839699 -47.587287 -0.161342 30.694290 -3.736617 0.000000 0.000000 0.000000 
3.113272 81.565155 -6.178748 179.788474 1.298677 179.849345 -3.647056 -1.588186 10.434300 2.363750 -4.730630 -23.125368 6.543412 0.993345 26.662706 -2.998638 -7.970925 -8.180343 0.000000 0.000000 0.000000 -0.157172 -2.946990 9.795646 -4.233382 -1.187168 -22.468761 -1.043012 2.572648 31.445235 9.197648 4.196743 -9.812172 0.000000 0.000000 0.000000 2.695812 1.208084 -3.235296 -6.151428 2.946347 0.996168 -0.673401 -2.453000 3.474387 -0.017381 0.101418 -0.058515 -0.966812 -1.356838 3.859871 1.745348 -2.657341 -10.041803 0.000000 0.000000 0.000000 0.477658 -0.635245 1.190556 13.279898 1.582657 -4.367494 -6.760085 5.370676 -48.709265 -0.167731 -37.354451 -8.650723 0.000000 0.000000 0.000000 -3.246174 0.443824 0.717631 5.891662 -15.000354 -4.025852 11.065040 -11.846707 -47.624816 -0.192337 30.730606 -3.767290 0.000000 0.000000 0.000000 
3.109239 81.568405 -6.189951 179.843430 1.528143 179.862431 -3.593084 -1.325580 10.452112 2.370879 -4.635635 -23.170093 6.527799 1.074833 26.619571 -2.974626 -7.929787 -8.139666 0.000000 0.000000 0.000000 -0.091810 -2.596468 9.791175 -4.224556 -1.128835 -22.445967 -1.056306 2.612066 31.438043 9.225334 4.231721 -9.795382 0.000000 0.000000 0.000000 2.711292 1.286939 -3.250939 -6.118608 2.976190 0.977505 -0.614084 -2.432817 3.491298 0.058718 0.149916 -0.032208 -1.046053 -1.449782 3.866562 1.726480 -2.585287 -9.965663 0.000000 0.000000 0.000000 0.395164 -0.601161 1.182488 13.288604 1.630180 -4.388043 -6.715844 5.278827 -48.588788 -0.005486 -37.314467 -8.796755 0.000000 0.000000 0.000000 -3.355681 0.451568 0.685563 5.875070 -14.948284 -4.014528 11.113602 -11.939166 -47.670397 -0.225845 30.756468 -3.790019 0.000000 0.000000 0.000000 
3.109027 81.568268 -6.206512 179.836162 1.344061 179.857445 -3.614236 -1.611862 10.431078 2.372270 -4.719199 -23.103677 6.551601 0.961641 26.690638 -3.007868 -7.958331 -8.203225 0.000000 0.000000 0.000000 -0.107391 -3.024218 9.797822 -4.227160 -1.147757 -22.460587 -1.040694 2.596688 31.429337 9.197633 4.215156 -9.815036 0.000000 0.000000 0.000000 2.709514 1.152793 -3.257338 -6.130190 2.884403 0.964756 -0.617244 -2.504385 3.478936 0.052301 0.057537 -0.063027 -1.031404 -1.429643 3.873098 1.717793 -2.611537 -9.983942 0.000000 0.000000 0.000000 0.409943 -0.567281 1.132146 13.263653 1.635464 -4.305109 -6.716851 5.362455 -48.572211 -0.107595 -37.312248 -8.679317 0.000000 0.000000 0.000000 -3.328137 0.525961 0.733399 5.861295 -14.871315 -4.058436 11.055196 -11.948143 -47.692090 -0.183624 30.775630 -3.696572 0.000000 0.000000 0.000000 
3.109139 81.568680 -6.234026 179.839195 1.366406 179.780141 -3.611811 -1.534145 10.455920 2.354714 -4.720865 -23.061681 6.581299 0.958789 26.720805 -3.026170 -7.966119 -8.207319 0.000000 0.000000 0.000000 -0.126501 -2.987195 9.847047 -4.238740 -1.095268 -22.396583 -1.040542 2.612633 31.358474 9.185290 4.217912 -9.772451 0.000000 0.000000 0.000000 2.718980 1.167159 -3.236129 -6.128866 2.913619 0.977790 -0.643510 -2.462344 3.514431 -0.008528 0.086846 -0.030127 -0.981188 -1.383702 3.826082 1.708062 -2.586391 -9.969288 0.000000 0.000000 0.000000 0.466682 -0.561781 1.145327 13.289992 1.680737 -4.365786 -6.643392 5.217615 -48.560032 -0.094831 -37.248109 -8.682204 0.000000 0.000000 0.000000 -3.263222 0.497151 0.619953 5.865449 -14.883001 -4.110883 11.095195 -12.017592 -47.736674 -0.117789 30.757892 -3.586123 0.000000 0.000000 0.000000 
3.108020 81.567871 -6.264829 179.848143 1.552797 179.808582 -3.592036 -1.438555 10.459129 2.350039 -4.615269 -23.054967 6.547093 1.056380 26.714475 -2.995150 -7.923473 -8.245650 0.000000 0.000000 0.000000 -0.073949 -2.900194 9.796642 -4.256665 -1.035459 -22.375135 -1.063288 2.695683 31.464083 9.219912 4.272332 -9.864753 0.000000 0.000000 0.000000 2.705863 1.214835 -3.257021 -6.133102 2.928227 0.942034 -0.611315 -2.466658 3.489937 0.043104 0.089660 -0.038488 -1.018726 -1.418281 3.828126 1.708803 -2.596343 -9.899007 0.000000 0.000000 0.000000 0.427139 -0.547577 1.129612 13.321563 1.733483 -4.366592 -6.588695 5.186099 -48.561784 -0.058963 -37.202790 -8.726846 0.000000 0.000000 0.000000 -3.306782 0.493030 0.674206 5.883710 -14.808190 -4.042879 11.068720 -11.952268 -47.731715 -0.244254 30.707468 -3.730536 0.000000 0.000000 0.000000 
3.106558 81.565392 -6.307621 179.815767 1.495161 179.770333 -3.626950 -1.421226 10.465406 2.327575 -4.654755 -23.018205 6.544787 1.027554 26.776978 -3.016384 -7.923685 -8.253140 0.000000 0.000000 0.000000 -0.127056 -2.888048 9.829622 -4.276019 -1.012725 -22.330684 -1.066731 2.677892 31.417060 9.193042 4.262086 -9.842446 0.000000 0.000000 0.000000 2.689248 1.193667 -3.251600 -6.141788 2.909123 0.942666 -0.632324 -2.465150 3.531951 0.002025 0.092597 -0.019959 -0.930012 -1.345250 3.828966 1.725586 -2.396612 -9.871711 0.000000 0.000000 0.000000 0.511187 -0.605965 1.120263 13.324433 1.874078 -4.396486 -6.542719 5.124806 -48.623441 -0.216066 -37.156936 -8.539136 0.000000 0.000000 0.000000 -3.221629 0.463223 0.678130 5.839394 -14.822516 -4.145514 11.029488 -11.980371 -47.688688 -0.272845 30.696219 -3.718664 0.000000 0.000000 0.000000 
3.101748 81.560638 -6.354591 179.842515 1.407462 179.825398 -3.612122 -1.563362 10.443031 2.351176 -4.595629 -23.042587 6.568995 1.097424 26.827129 -3.031036 -7.914234 -8.289328 0.000000 0.000000 0.000000 -0.116557 -2.914525 9.824577 -4.262271 -1.043187 -22.320256 -1.052385 2.629410 31.406303 9.143879 4.214098 -9.901034 0.000000 0.000000 0.000000 2.680808 1.160904 -3.309340 -6.144585 2.872937 0.886839 -0.609156 -2.497360 3.529921 0.018199 0.051206 -0.040587 -0.979582 -1.393691 3.850468 1.718394 -2.465258 -9.879934 0.000000 0.000000 0.000000 0.459761 -0.536438 1.191404 13.373537 1.849807 -4.391442 -6.381524 5.138966 -48.596178 -0.130293 -37.155806 -8.598902 0.000000 0.000000 0.000000 -3.238388 0.440983 0.715321 5.874234 -14.770467 -4.153125 11.048867 -11.951827 -47.948427 -0.162790 30.683218 -3.572121 0.000000 0.000000 0.000000 
3.096852 81.556427 -6.401116 179.875846 1.419267 -179.979419 -3.586704 -1.747537 10.330472 2.374383 -4.511623 -23.062311 6.559943 1.197042 26.897188 -3.044427 -7.910524 -8.414913 0.000000 0.000000 0.000000 -0.084047 -2.810789 9.750258 -4.241282 -1.104835 -22.369693 -1.050083 2.566872 31.395398 9.108722 4.170476 -9.938811 0.000000 0.000000 0.000000 2.679132 1.149416 -3.441890 -6.155380 2.851510 0.751003 -0.572966 -2.500589 3.483900 0.061222 0.062728 -0.029580 -1.020130 -1.440988 3.879693 1.759600 -2.586899 -9.878836 0.000000 0.000000 0.000000 0.422964 -0.602889 1.209035 13.387038 1.864776 -4.345076 -6.243944 5.182549 -48.613001 -0.087547 -37.155765 -8.592247 0.000000 0.000000 0.000000 -3.307001 0.418596 0.733113 5.922184 -14.757542 -4.139288 11.089453 -12.002163 -47.892580 -0.238807 30.738624 -3.653986 0.000000 0.000000 0.000000 
3.092788 81.544830 -6.447085 179.878482 1.544231 179.980184 -3.575505 -1.481194 10.339102 2.359439 -4.457626 -23.034521 6.549488 1.239809 26.936408 -3.053362 -7.891000 -8.481988 0.000000 0.000000 0.000000 -0.059093 -2.813770 9.704195 -4.271742 -0.918562 -22.324053 -1.083274 2.750661 31.561597 9.132755 4.229141 -10.071290 0.000000 0.000000 0.000000 2.653136 1.160698 -3.425917 -6.164860 2.862142 0.725622 -0.572958 -2.428630 3.501255 0.036520 0.139747 -0.004846 -1.000818 -1.441509 3.818428 1.757766 -2.482206 -9.874289 0.000000 0.000000 0.000000 0.443978 -0.603507 1.212337 13.435145 1.881751 -4.455281 -6.148592 5.158625 -48.637162 -0.211689 -37.090960 -8.402671 0.000000 0.000000 0.000000 -3.266590 0.403689 0.624217 5.946760 -14.733724 -4.192352 11.114059 -12.104839 -47.846838 -0.198516 30.811762 -3.533430 0.000000 0.000000 0.000000 
3.086905 81.541000 -6.496265 179.847200 1.429025 179.919682 -3.638491 -1.683525 10.369035 2.358503 -4.505980 -22.975213 6.547926 1.268478 27.005993 -3.063392 -7.880737 -8.536649 0.000000 0.000000 0.000000 -0.106899 -3.030929 9.734784 -4.290379 -0.904396 -22.299106 -1.068953 2.753878 31.576067 9.093381 4.190102 -10.102235 0.000000 0.000000 0.000000 2.606367 1.085338 -3.407793 -6.194659 2.806700 0.685243 -0.574211 -2.497520 3.499312 0.046256 0.037809 -0.023362 -0.980743 -1.400411 3.821624 1.802334 -2.568027 -9.791353 0.000000 0.000000 0.000000 0.461985 -0.571600 1.162656 13.379278 1.941629 -4.364019 -6.117311 5.216497 -48.497642 -0.119079 -37.105228 -8.453182 0.000000 0.000000 0.000000 -3.246092 0.482255 0.672120 5.945033 -14.644470 -4.249892 11.218009 -12.159012 -47.856144 -0.236786 30.841422 -3.562908 0.000000 0.000000 0.000000 
3.077093 81.534592 -6.542056 179.886392 1.443537 179.958040 -3.631063 -1.659066 10.351457 2.389492 -4.491390 -23.014589 6.552324 1.286550 27.099773 -3.057132 -7.857088 -8.552926 0.000000 0.000000 0.000000 -0.101293 -2.852519 9.748827 -4.268162 -0.952869 -22.287481 -1.049998 2.669248 31.553459 9.070613 4.148371 -10.071897 0.000000 0.000000 0.000000 2.606255 1.062292 -3.457731 -6.178415 2.794329 0.625878 -0.550596 -2.475788 3.515455 0.059461 0.040697 -0.020861 -0.986804 -1.399251 3.814600 1.861732 -2.668923 -9.762364 0.000000 0.000000 0.000000 0.469544 -0.571696 1.144255 13.380915 1.886528 -4.355121 -6.104195 5.280540 -48.387857 -0.101311 -37.113455 -8.340551 0.000000 0.000000 0.000000 -3.239437 0.490990 0.689610 6.077753 -14.573508 -4.295842 11.241223 -12.197917 -47.855638 -0.221839 30.947403 -3.471603 0.000000 0.000000 0.000000 
